<svg width="39" height="51" viewBox="0 0 39 51" fill="none" xmlns="http://www.w3.org/2000/svg">
<path d="M25.3805 50.1289C22.7122 50.0726 20.0614 49.6856 17.4885 48.9768C15.2266 48.3875 13.0652 47.465 11.075 46.2392C7.68271 44.0386 4.94932 40.9606 3.16523 37.3318C0.252484 31.2301 -0.374012 25.2592 1.19965 18.54C2.82081 11.6129 8.06732 5.13421 14.264 2.42336C20.5259 -0.320148 26.7968 0.0183368 32.8598 0.344957C33.9473 0.402787 35.056 0.462476 36.1637 0.504038C37.618 0.558592 38.798 1.73851 38.798 3.19389C38.798 4.64924 37.618 5.82999 36.1635 5.77849C34.9468 5.73534 33.7443 5.67024 32.5629 5.6063C26.8621 5.30932 21.476 5.01249 16.3602 7.25125C11.7699 9.26428 7.54183 14.5227 6.32143 19.7395C5.01793 25.3066 5.50788 30.0336 7.91298 35.0634C8.53137 36.3177 9.3044 37.4897 10.2141 38.5521C11.262 39.7959 12.4875 40.8783 13.8513 41.7647C15.3881 42.7056 17.0547 43.4158 18.7978 43.8729C21.5205 44.5736 23.9435 44.912 25.8111 44.8557C27.8033 44.7903 29.7748 44.6746 31.6335 43.8936C31.7261 43.8552 31.9254 43.7636 32.1796 43.6422C33.5032 43.0099 35.5179 43.3229 36.4734 44.436C37.4512 45.5752 37.1421 47.3465 35.7887 47.9966C34.4226 48.6529 33.7209 48.8418 32.8034 49.0213C32.5272 49.0748 32.2719 49.1222 31.9126 49.2263C29.9796 49.7531 27.9916 50.0521 25.9891 50.1169C25.7853 50.125 25.5824 50.1289 25.3805 50.1289Z" fill="url(#paint0_linear_1150_8919)"/>
<path d="M4.40223 30.9663L3.11963 28.3802L11.6916 24.1372C11.9384 24.0156 12.2147 23.9669 12.4883 23.9969C12.7617 24.0269 13.0209 24.1343 13.2356 24.3065L16.3294 26.7976L19.6993 24.6421C19.9497 24.481 20.2439 24.4017 20.5411 24.415C20.8384 24.4282 21.1243 24.5335 21.3592 24.7162L24.2689 26.9639L27.8319 24.5885L29.4412 26.9816L25.029 29.9508C24.7774 30.1192 24.4793 30.2042 24.1767 30.1941C23.8742 30.184 23.5823 30.0791 23.3425 29.8944L20.412 27.6319L17.0242 29.7994C16.7696 29.9618 16.4706 30.0402 16.1691 30.0238C15.8676 30.0073 15.5789 29.8966 15.3437 29.7074L12.1607 27.145L4.40223 30.9663Z" fill="url(#paint1_linear_1150_8919)"/>
<path d="M19.4573 44.4347V34.0841C19.4573 32.5378 18.2037 31.2842 16.6574 31.2842C15.111 31.2842 13.8574 32.5378 13.8574 34.0841V44.4347H19.4573Z" fill="url(#paint2_linear_1150_8919)"/>
<path d="M16.6993 22.6315C15.0697 22.6567 13.6592 21.3244 14.2345 19.7995C14.5807 18.8814 15.1086 18.0422 15.7861 17.3324C18.2593 14.7789 22.0421 14.6602 22.4667 14.6602H35.6677C37.3075 14.6602 38.6367 15.9894 38.6367 17.6292C38.6367 19.2691 37.3075 20.5984 35.6677 20.5984H22.5558C21.9116 20.6382 21.2795 20.791 20.6881 21.0498C19.7093 21.515 18.8289 22.5985 17.7453 22.6153L16.6993 22.6315Z" fill="url(#paint3_linear_1150_8919)"/>
<path d="M30.3226 28.5805C30.2054 28.8423 29.8512 28.8849 29.6755 28.658L26.3778 24.4013C26.2021 24.1746 26.3315 23.8425 26.6141 23.7943L32.2458 22.8328C32.5451 22.7818 32.7803 23.0852 32.6564 23.3624L30.3226 28.5805Z" fill="url(#paint4_linear_1150_8919)"/>
<defs>
<linearGradient id="paint0_linear_1150_8919" x1="19.5787" y1="0.128906" x2="19.5787" y2="50.1289" gradientUnits="userSpaceOnUse">
<stop stop-color="#8E45FF"/>
<stop offset="1" stop-color="#1B6EFF"/>
</linearGradient>
<linearGradient id="paint1_linear_1150_8919" x1="16.2804" y1="23.9883" x2="16.2804" y2="30.9663" gradientUnits="userSpaceOnUse">
<stop stop-color="#8E45FF"/>
<stop offset="1" stop-color="#1B6EFF"/>
</linearGradient>
<linearGradient id="paint2_linear_1150_8919" x1="16.6574" y1="31.2842" x2="16.6574" y2="44.4347" gradientUnits="userSpaceOnUse">
<stop stop-color="#8E45FF"/>
<stop offset="1" stop-color="#1B6EFF"/>
</linearGradient>
<linearGradient id="paint3_linear_1150_8919" x1="26.3701" y1="14.6602" x2="26.3701" y2="22.6319" gradientUnits="userSpaceOnUse">
<stop stop-color="#8E45FF"/>
<stop offset="1" stop-color="#1B6EFF"/>
</linearGradient>
<linearGradient id="paint4_linear_1150_8919" x1="29.494" y1="22.8271" x2="29.494" y2="28.8053" gradientUnits="userSpaceOnUse">
<stop stop-color="#8E45FF"/>
<stop offset="1" stop-color="#1B6EFF"/>
</linearGradient>
</defs>
</svg>
